<?xml version="1.0" encoding="utf-8"?>
<!-- Generator: Adobe Illustrator 23.0.1, SVG Export Plug-In . SVG Version: 6.00 Build 0)  -->
<svg version="1.2" baseProfile="tiny" xmlns="http://www.w3.org/2000/svg" xmlns:xlink="http://www.w3.org/1999/xlink" x="0px"
	 y="0px" viewBox="0 0 481.89 439.37" xml:space="preserve">
<g id="Layer_1" display="none">
</g>
<g id="Layer_2" display="none">
</g>
<g id="Layer_3" display="none">
</g>
<g id="Layer_4">
</g>
<g id="Layer_7">
</g>
<g id="Layer_5">
</g>
<g id="Layer_8">
</g>
<g id="Layer_6">
</g>
<g id="Layer_9">
</g>
<g id="Layer_10">
</g>
<g id="Layer_11">
</g>
<g id="Layer_12">
	<rect x="-29.06" y="-94.41" display="none" width="540" height="628.18"/>
	<g>
		<path fill="#FFFFFF" d="M55.66,394.97c0,7.52-1.96,13.25-5.88,17.19c-3.92,3.94-9.56,5.91-16.92,5.91c-3.56,0-6.82-0.32-9.78-0.96
			v-43.08c3.04-0.64,6.3-0.96,9.78-0.96c7.36,0,13,1.89,16.92,5.67C53.7,382.52,55.66,387.93,55.66,394.97z M32.86,375.65
			c-2.12,0-4.38,0.24-6.78,0.72v38.4c2.4,0.48,4.66,0.72,6.78,0.72c6.52,0,11.47-1.74,14.85-5.22c3.38-3.48,5.07-8.58,5.07-15.3
			c0-6.32-1.69-11.12-5.07-14.4C44.33,377.29,39.38,375.65,32.86,375.65z"/>
		<path fill="#FFFFFF" d="M65.62,417.47v-43.8h3.18v43.8H65.62z"/>
		<path fill="#FFFFFF" d="M101.08,375.65c-6,0-10.71,1.78-14.13,5.34c-3.42,3.56-5.13,8.42-5.13,14.58c0,6.12,1.74,10.97,5.22,14.55
			c3.48,3.58,8.22,5.37,14.22,5.37c4.44,0,8.38-0.78,11.82-2.34v-18.18H96.46v-2.52h19.5v22.38c-4.36,2.16-9.32,3.24-14.88,3.24
			c-6.76,0-12.17-2.04-16.23-6.12c-4.06-4.08-6.09-9.54-6.09-16.38s1.99-12.3,5.97-16.38c3.98-4.08,9.35-6.12,16.11-6.12
			c5.16,0,9.68,1.2,13.56,3.6l-1.14,2.28C109.62,376.75,105.56,375.65,101.08,375.65z"/>
		<path fill="#FFFFFF" d="M128.02,417.47v-43.8h3.18v43.8H128.02z"/>
		<path fill="#FFFFFF" d="M142.36,373.67h31.62v2.64h-14.34v41.16h-3v-41.16h-14.28V373.67z"/>
		<path fill="#FFFFFF" d="M173.44,417.47l16.38-43.8h3.6l16.44,43.8h-3.24l-5.04-13.86H181.6l-5.04,13.86H173.44z M182.56,401.09
			h18.12l-9-24.78h-0.12L182.56,401.09z"/>
		<path fill="#FFFFFF" d="M220.54,373.67v41.16h22.68v2.64h-25.8v-43.8H220.54z"/>
		<path fill="#FFFFFF" d="M266.26,417.47l16.38-43.8h3.6l16.44,43.8h-3.24l-5.04-13.86h-19.98l-5.04,13.86H266.26z M275.38,401.09
			h18.12l-9-24.78h-0.12L275.38,401.09z"/>
		<path fill="#FFFFFF" d="M310.24,417.47v-43.5c3.24-0.6,6.7-0.9,10.38-0.9c5.52,0,9.67,1.01,12.45,3.03
			c2.78,2.02,4.17,4.95,4.17,8.79c0,6.12-3.38,9.88-10.14,11.28v0.12c1,0.48,1.93,1.32,2.79,2.52s1.89,3.18,3.09,5.94l5.46,12.72
			h-3.18l-5.22-12.36c-0.68-1.6-1.25-2.82-1.71-3.66c-0.46-0.84-0.95-1.59-1.47-2.25c-0.52-0.66-1.14-1.1-1.86-1.32
			s-1.48-0.38-2.28-0.48c-0.8-0.1-1.96-0.15-3.48-0.15h-6v20.22H310.24z M313.24,394.73h6c5.2,0,9.01-0.8,11.43-2.4
			c2.42-1.6,3.63-4.02,3.63-7.26c0-6.28-4.62-9.42-13.86-9.42c-2.64,0-5.04,0.2-7.2,0.6V394.73z"/>
		<path fill="#FFFFFF" d="M343,373.67h31.62v2.64h-14.34v41.16h-3v-41.16H343V373.67z"/>
		<path fill="#FFFFFF" d="M385.78,417.47v-43.8h3.18v43.8H385.78z"/>
		<path fill="#FFFFFF" d="M413.2,375.65c-3.08,0-5.47,0.67-7.17,2.01c-1.7,1.34-2.55,3.21-2.55,5.61c0,4.4,3.26,7.6,9.78,9.6
			c4.64,1.4,7.98,3.16,10.02,5.28c2.04,2.12,3.06,4.86,3.06,8.22c0,3.76-1.15,6.65-3.45,8.67c-2.3,2.02-5.59,3.03-9.87,3.03
			c-4.88,0-9.18-1.34-12.9-4.02l1.08-2.4c3.44,2.56,7.38,3.84,11.82,3.84c3.36,0,5.92-0.78,7.68-2.34c1.76-1.56,2.64-3.82,2.64-6.78
			c0-2.68-0.79-4.85-2.37-6.51c-1.58-1.66-4.23-3.07-7.95-4.23c-8.32-2.48-12.48-6.6-12.48-12.36c0-3.08,1.11-5.55,3.33-7.41
			c2.22-1.86,5.33-2.79,9.33-2.79c4.48,0,8.58,0.96,12.3,2.88l-0.84,2.4C421.3,376.55,417.48,375.65,413.2,375.65z"/>
		<path fill="#FFFFFF" d="M432.7,373.67h31.62v2.64h-14.34v41.16h-3v-41.16H432.7V373.67z"/>
	</g>
	<g>
		<path fill="#D2453A" d="M312.76,10.14H173.15c-12.13,0-23.34,6.47-29.41,16.98L73.93,148.03c-6.07,10.51-6.07,23.45,0,33.96
			l69.81,120.91c6.07,10.51,17.28,16.98,29.41,16.98h139.61c12.13,0,23.34-6.47,29.41-16.98l69.81-120.91
			c6.07-10.51,6.07-23.45,0-33.96L342.17,27.12C336.11,16.62,324.9,10.14,312.76,10.14z"/>
		<g>
			<path fill="#FFFFFF" d="M196.7,49.29c-11.5,0-20.53,3.41-27.08,10.23c-6.55,6.82-9.83,16.14-9.83,27.94
				c0,11.73,3.33,21.03,10.01,27.89c6.67,6.86,15.75,10.29,27.25,10.29c8.51,0,16.06-1.5,22.65-4.48V86.32h-31.85v-4.83h37.38v42.9
				c-8.36,4.14-17.87,6.21-28.52,6.21c-12.96,0-23.33-3.91-31.11-11.73c-7.78-7.82-11.67-18.29-11.67-31.4s3.81-23.57,11.44-31.4
				c7.63-7.82,17.92-11.73,30.88-11.73c9.89,0,18.55,2.3,25.99,6.9l-2.19,4.37C213.07,51.4,205.29,49.29,196.7,49.29z"/>
		</g>
		<g>
			<path fill="#FFFFFF" d="M318.04,262.7c0,7.44-2.51,13.51-7.53,18.23c-5.02,4.72-13.4,7.07-25.13,7.07
				c-7.36,0-13.99-0.62-19.89-1.84v-82.57c6.13-1.23,12.38-1.84,18.75-1.84c19.7,0,29.55,6.63,29.55,19.9
				c0,4.83-1.53,8.91-4.6,12.25c-3.07,3.34-7.32,5.65-12.77,6.96v0.23c7.05,1.15,12.42,3.56,16.1,7.24
				C316.2,252,318.04,256.79,318.04,262.7z M284.23,206.69c-4.29,0-8.63,0.42-13,1.26v30.94h10.7c8.66,0,15.22-1.44,19.67-4.31
				c4.45-2.88,6.67-7,6.67-12.36C308.27,211.87,300.26,206.69,284.23,206.69z M312.29,262.35c0-6.29-2.45-10.96-7.36-14.03
				c-4.91-3.07-12.58-4.6-23-4.6h-10.7v38.07c4.68,0.84,9.39,1.26,14.14,1.26C303.32,283.05,312.29,276.15,312.29,262.35z"/>
		</g>
		<g>
			<path fill="#FFFFFF" d="M389.86,22.04c1.72,4.66,2.82,9.56,3.59,14.52c0.72,4.97,1.13,10.02,1.06,15.1
				c0,2.54-0.14,5.08-0.32,7.63c-0.22,2.54-0.53,5.09-0.95,7.62c-0.81,5.07-2,10.12-3.65,15.05c-1.63,4.93-3.61,9.77-5.98,14.44
				c-2.39,4.65-5.14,9.14-8.18,13.43c-6.08,8.58-13.4,16.26-21.41,23.02c-7.99,6.81-16.73,12.62-25.8,17.71
				c-9.1,5.02-18.56,9.32-28.22,12.89c-19.33,7.16-39.35,11.65-59.39,14.46l-7.28,1.04c-2.36,0.33-4.73,0.64-7.07,1.04
				c-4.7,0.73-9.37,1.58-14.03,2.43c-2.32,0.47-4.64,0.9-6.95,1.4l-6.9,1.54c-2.28,0.56-4.58,1.07-6.85,1.67
				c-2.25,0.62-4.54,1.18-6.78,1.85c-2.24,0.66-4.51,1.25-6.71,1.99l-3.33,1.06c-1.11,0.36-2.19,0.76-3.29,1.14
				c-4.41,1.48-8.7,3.19-12.95,4.98c-8.44,3.67-16.56,7.97-23.99,13.17c-7.4,5.22-14.15,11.32-19.68,18.43
				c-5.61,7.06-9.93,15.13-13,23.81c-1.51,4.35-2.68,8.86-3.53,13.47c-0.85,4.62-1.32,9.34-1.54,14.12
				c-0.32,9.55,0.42,19.33,2.65,28.98c-2.41-4.35-4.25-9.03-5.79-13.82c-0.75-2.4-1.42-4.83-2.01-7.3
				c-0.58-2.47-1.02-4.96-1.42-7.48c-0.38-2.52-0.67-5.06-0.85-7.63c-0.14-2.56-0.25-5.14-0.19-7.73c0.02-2.59,0.18-5.18,0.42-7.78
				c0.3-2.59,0.65-5.19,1.17-7.76c1.93-10.34,5.95-20.41,11.54-29.52c5.61-9.12,12.82-17.19,20.8-24.2
				c8-7.02,16.85-12.88,26.03-17.92c4.63-2.43,9.3-4.79,14.08-6.82c1.2-0.51,2.39-1.04,3.59-1.52l3.61-1.43
				c2.4-0.98,4.84-1.8,7.27-2.7c2.44-0.87,4.9-1.59,7.35-2.39c2.46-0.77,4.93-1.45,7.39-2.17c2.47-0.7,4.96-1.28,7.44-1.92
				c2.49-0.6,4.98-1.14,7.47-1.71c4.98-1.08,9.99-2.02,15-2.83c2.5-0.44,5.01-0.79,7.52-1.16l3.76-0.55l3.56-0.49
				c18.9-2.62,37.56-6.22,55.54-11.56c8.98-2.69,17.8-5.78,26.32-9.5c4.23-1.89,8.45-3.86,12.48-6.1c4.07-2.19,8.04-4.56,11.83-7.16
				c7.65-5.14,14.62-11.19,20.78-18.01c3.07-3.42,5.92-7.05,8.49-10.88c2.6-3.82,4.96-7.83,7-12.02c2.02-4.2,3.86-8.53,5.31-13.03
				c1.45-4.49,2.65-9.11,3.53-13.83c0.86-4.71,1.46-9.52,1.7-14.37c0.13-2.43,0.19-4.87,0.14-7.32
				C390.24,26.96,390.16,24.49,389.86,22.04z"/>
			<circle fill="#FFFFFF" cx="376.23" cy="26.73" r="14.4"/>
			<circle fill="#FFFFFF" cx="112.13" cy="303.29" r="14.4"/>
		</g>
	</g>
</g>
</svg>
