<?xml version="1.0" encoding="utf-8"?>
<!-- Generator: Adobe Illustrator 22.1.0, SVG Export Plug-In . SVG Version: 6.00 Build 0)  -->
<svg version="1.1" id="Layer_1" xmlns="http://www.w3.org/2000/svg" xmlns:xlink="http://www.w3.org/1999/xlink" x="0px" y="0px"
	 viewBox="0 0 3630 1080" style="enable-background:new 0 0 3630 1080;" xml:space="preserve">
<style type="text/css">
	.st0{fill:#9CD8C7;}
	.st1{fill:#257746;}
	.st2{fill:#FFFFFF;}
	.st3{opacity:0.2;}
	.st4{fill:#1A6024;}
	.st5{fill:#237531;}
	.st6{fill:#229139;}
	.st7{fill:#B59474;stroke:#56381D;stroke-width:15;stroke-linecap:square;stroke-linejoin:round;stroke-miterlimit:10;}
	.st8{fill:#B59474;}
	.st9{fill:#7A502D;}
</style>
<rect x="-14" class="st0" width="3656" height="763"/>
<path class="st1" d="M1913.5,292.5c0,0-288,128-355,212c-67-146-307-85-347-13c-75-95-172-134-172-134s-24,33-46,46
	c-29,0-28.7,0.1-74-39c-51-44-55-10-100,30c-26.8,23.8-90,16-135-48s-140-82-140-82s-72,14-108,91s-447,87-447,87l-7,647h3660v-855
	c0,0-259-18-333,60s-239,73-314-8c-69,57-113,91-196,119c-81-81-97-145-239-180c-118,28-189,129-189,129s-147,55-222,10
	S1913.5,292.5,1913.5,292.5z"/>
<path class="st2" d="M3309.5,294.5c-74,78-239,73-314-8c-69,57-113,91-196,119c-81-81-97-145-239-180c-118,28-189,129-189,129
	s-147,55-222,10s-236-72-236-72s-288,128-355,212c-67-146-307-85-347-13c-75-95-172-134-172-134s-24,33-46,46c-29,0-28.7,0.1-74-39
	c-51-44-55-10-100,30c-26.8,23.8-90,16-135-48s-140-82-140-82s-72,14-108,91s-447,87-447,87l-1.1,97.5c0,0,36.6,74,76.6,32
	c40-42,74-32,100-10s82,41,116,11s66-60,126-53s89,0,135-16s107-27,186,0s52,52,157,47s82-32,147-31s128,18,176,85
	c52-23,66-62,147-62s152,20,204,62c69-23,166-180,355-198s136,113,365,113s286-136,286-136s128,49,242,198c73-88,196-124,196-124
	s75,62,204,62s435.5-126.9,435.5-126.9V234.5C3642.5,234.5,3383.5,216.5,3309.5,294.5z"/>
<path class="st3" d="M1000.6,400.6c0,0-29.6,74.4-103.6,111.4s-158,29-220,79c86-72,98-89,162-109S940.3,464.2,1000.6,400.6z"/>
<path class="st3" d="M1039.2,358c0,0-0.1,0.1-0.1,0.2c1.6,4.3,48.2,129.3-110,208.9c-161,81-303,280-288,357s555-120,555-120
	s33.3-182.8,16-313c0-0.1,0-0.2,0-0.3c-0.2,0.3-0.3,0.5-0.5,0.8c-71.7-90.8-163.4-130.4-171.4-133.8
	C1039.8,357.8,1039.5,357.9,1039.2,358z"/>
<path class="st3" d="M810.5,400.6L810.5,400.6c-30.1,15.6-85.5,3.6-126-54.1C641.2,285,551.8,266,544.9,264.6
	C704.6,364.3,593.2,452,677,456C761,460,810.5,400.6,810.5,400.6z"/>
<path class="st3" d="M1581,738c0,0-58.3-214.2,46.3-292.1c0,0,0,0,0,0c-29.8,20.4-54.4,40.5-68.8,58.6
	c-33.9-73.8-111.9-94.7-185.9-88c0,0,101.4,40.5,108.4,137.5c7,97-54,234-54,234L1581,738z"/>
<path class="st3" d="M489,456c0,0-171,30-228,231S15,923,15,923l248-23c0,0,4-146,118-190S384,534,489,456"/>
<path class="st3" d="M229,456c0,0-142,41-184,272C173,591,229,456,229,456z"/>
<path class="st3" d="M3165,639c84,46,282,48,282,48s-418-95.9-358.2-346.4c-36.3-10.1-69.4-28.2-93.3-54.1c-0.2,0.2-0.4,0.4-0.6,0.5
	c-1.4,10.5-12.5,100.3,8.1,169C3025,529,3081,593,3165,639z"/>
<path class="st3" d="M2129,543c-5.2-118.3,138.7-160.8,176.2-169.8c-48.7,10.3-113.5,16.6-155.7-8.7c-63.3-38-187.9-63.1-225.2-70.1
	C1960.6,324.8,2083.2,432.8,2129,543z"/>
<path class="st4" d="M-17.5,833c0,0,434.5,48,860.5-38s1148-138,1520-88s400,120,804,88s475.5-67,475.5-67v361H-18L-17.5,833z"/>
<path class="st5" d="M1492,885c363-190,920.8-170.9,920.8-170.9c-15.9-2.4-32.5-4.8-49.8-7.1c-372-50-1094,2-1520,88
	s-860.5,38-860.5,38l-0.5,256h1232.7C1273.8,1025,1361.7,953.2,1492,885z"/>
<path class="st6" d="M843,795c-426,86-860.5,38-860.5,38l-0.5,256h638.1c31.6-46.5,76.2-97.7,138.9-147
	c236.6-186.1,864.2-242,864.2-242C1343,717.5,1056,752,843,795z"/>
<path class="st5" d="M3457,1021c-56.6,12.2-153.8,31.8-235.6,68h421.1V728c0,0-71.5,35-475.5,67c-36.2,2.9-69.4,4.9-100.1,6.2
	c0,0,66.1,61.8,312.1,71.8C3625,883,3559,999,3457,1021z"/>
<path class="st3" d="M1947,787.8c0,0,179.2-34.9,345.5-32.6c101.7,23.5,102.5,44.8,162.5,72.9c-132.1-6.1-293.1-0.8-422.2,18.2
	c-1.8-1.3-10.2-7.8-12.5-9.5c-0.6-0.4-91,19.8-149.7,40.6c-67.9,24.1-105.5,49.5-106.2,49c-2-1.4-7.8-2.3-9.9-3.8
	c-1.2-0.9,39.2-27,108.6-51.6c58.5-20.7,147.9-40.7,146.9-41.4c-3.6-2.6-7.1-5.1-10.2-7.2c-1.1-0.8-30.2,1.1-58.7,8.1
	c-32.4,7.9-64.5,20.9-65.8,20c-2.1-1.4-8.6,3.6-10.6,2.3c-1.7-1.2,35.8-16.8,70.8-26.7c27.8-7.9,55-10.4,53.7-11.3
	c-4-2.7-15.7-9.2-19-11.4c-0.9-0.6-98.4,5.7-181.7,30.4c-96,28.4-179.5,75.8-180.5,75.2c-2.3-1.5-5.6-3.2-7.6-4.6
	c-1.2-0.8,86.2-49.2,183.8-78.1c81.5-24.2,176.1-29.7,175.3-30.3C1951.8,790.9,1947,787.8,1947,787.8z"/>
<g>
	<path class="st7" d="M1760.6,919.7c0,0,51.6-191.3,69.9-315.9"/>
	<path class="st7" d="M1868.8,846.5c0,0-38-237.8-38-363.7"/>
	<path class="st7" d="M1605,902.3c0,0,51.6-191.3,69.9-315.9"/>
	<path class="st8" d="M1879.2,730c-1,0-2-0.1-3.1-0.2c-61.7-6.5-124.2-12.8-186-18.5c-41.3-3.9-76.3-6.5-119.8-7.6
		c11.5-31.5,19.1-59.3,27.1-88.5c4-14.7,8.1-29.8,12.9-46.1c12.4-42.2,23.6-85.8,35-137c0.7-3.3,1.5-6.6,2.2-10
		c4.6-20.7,9.9-44.1,13.7-64.6c1.2-6.3,5.2-27.8,7.6-41.9c0.8-5,2.4-18.3,3.3-25.7c8.2-0.1,25-0.2,39.6-0.2
		c11.7,0,19.6,0.1,23.5,0.2c12.5,0.4,25.1,0.7,37.3,1c12.2,0.3,24.8,0.6,37.2,1c2.6,0.1,10.4,0.3,21.3,0.7c32.1,1,101.9,3.2,122,4.2
		c-2.1,19-4,37.3-5.8,55.1c-5.1,49.3-9.9,95.8-17.7,147.8c-12.5,83.6-25.8,149.2-45.8,226.4c-0.4,1.5-1.3,2.8-2.3,3.4
		C1881.1,729.9,1880.3,730,1879.2,730z"/>
	<path class="st9" d="M1711.9,295.4c11.6,0,19.5,0.1,23.3,0.2c12.5,0.4,25.2,0.7,37.4,1c12.2,0.3,24.7,0.6,37.1,1
		c2.6,0.1,10.5,0.3,21.3,0.7c29.3,0.9,90.5,2.9,115.8,3.9c-1.8,16.8-3.5,33.2-5.2,49.1c-5.1,49.2-9.9,95.6-17.7,147.6
		c-12.5,83.2-25.7,148.5-45.5,225.4c-0.5,0-1.1-0.1-1.7-0.2c-61.7-6.5-124.3-12.8-186-18.5c-38.9-3.6-72.2-6.2-112.3-7.4
		c10.1-28.7,17.2-54.5,24.5-81.6c4-14.6,8.1-29.8,12.9-46c12.5-42.3,23.6-86,35.1-137.4c0.7-3.3,1.5-6.6,2.2-10
		c4.6-20.7,9.9-44.2,13.8-64.8c1.2-6.3,5.2-27.9,7.6-42c0.7-4.1,1.9-13.6,2.7-21C1686.4,295.5,1699.9,295.4,1711.9,295.4
		 M1711.9,284c-20.2,0-44.6,0.2-44.6,0.2s-2.6,23.6-3.8,30.4c-2,11.9-5.4,29.9-7.6,41.8c-4.5,23.7-10.7,50.9-15.9,74.4
		c-10.4,46.7-21.4,90.8-34.9,136.7c-15.2,51.7-23.6,91.4-42.7,141.8c48,0.9,84.8,3.7,127.4,7.7c62,5.8,124,12,185.9,18.5
		c1.2,0.1,2.4,0.2,3.7,0.2c1.9,0,3.7-0.3,5.2-1.2c2.5-1.5,4.2-4.1,4.9-6.9c21.6-83.5,34.5-151.1,45.9-227c11-73.1,16-135.5,24.2-209
		c0-0.8-136.9-4.9-149.4-5.4c-24.9-0.9-49.6-1.2-74.5-2C1731.1,284.1,1722,284,1711.9,284L1711.9,284z"/>
</g>
<path class="st3" d="M2341,623c152,50,454.3,14.4,466-41c15-71-44.8-89.7-8.5-177.5c-80.2-80.5-96.6-144.2-238-179
	c-0.3,0.1-0.6,0.1-0.9,0.2c-2.2,4.8-13.2,35.9,0.4,157.3C2575,517,2453,617,2341,623z"/>
</svg>
