<?xml version="1.0" encoding="utf-8"?>
<!-- Generator: Adobe Illustrator 22.1.0, SVG Export Plug-In . SVG Version: 6.00 Build 0)  -->
<svg version="1.1" id="Layer_1" xmlns="http://www.w3.org/2000/svg" xmlns:xlink="http://www.w3.org/1999/xlink" x="0px" y="0px"
	 viewBox="0 0 245 245" style="enable-background:new 0 0 245 245;" xml:space="preserve">
<style type="text/css">
	.st0{fill:#ECECEC;}
</style>
<g id="voqhU6.tif">
	<g>
		<g>
			<path class="st0" d="M245,198.7c0,1.5,0,3.1,0,4.6c-0.5,6.9-3.9,12-10,15.2c-4,2.1-8.4,2-12.8,2.1c-66.4,0-132.7,0-199.1,0
				c-4.3-0.1-8.7,0-12.8-2c-6.2-3.2-9.4-8.4-10.1-15.3c0-1.8,0-3.6,0-5.4c1-2.8,3.1-4.5,5.5-6.1c27.7-18.1,55.3-36.1,83.2-53.9
				c4.9-3.2,9.8-3.1,14.8-0.3c5,2.9,9.8,6.1,14.5,9.4c3,2.2,5.7,2.2,8.8,0c4.6-3.3,9.7-5.8,14.1-9.3c5.5-4.3,10.5-3.9,16.1,0
				c12.2,8.5,24.8,16.4,37.2,24.6c15.1,9.9,30.3,19.7,45.4,29.5C242.4,193.6,244.3,195.6,245,198.7z"/>
			<path class="st0" d="M244.2,72.5L244.2,72.5c-12.7,8.2-25.3,16.4-38,24.7c-12.3,8.1-24.6,16.2-37,24.2c-2.9,1.9-2.8,2.8,0,4.6
				c24.8,16.2,49.5,32.5,74.2,48.8c0.5,0.3,1,0.5,1.5,0.8c0-12.6,0-25.1,0-37.7c0-8.5,0-16.9,0-25.4c0-13.6,0-27.2,0-40.8
				C244.7,72,244.5,72.2,244.2,72.5z"/>
			<path class="st0" d="M240.8,33.9c-4.9-5.8-11.1-7.4-18.1-7.3c0-0.1,0-0.2,0-0.4c-4.9,0-9.7,0-14.6,0c-2.8,0-5.6,0-8.5,0
				c-58.5,0-117,0-175.5,0c-0.1,0-0.2,0.1-0.3,0.2c-0.1,0.1-0.1,0.1,0,0.2c-4.5,0-9-0.1-13.1,1.9c-6.5,3-9.5,8.6-10.4,15.4
				c0,1,0,2.1,0,3.1c0,0.5,0,1,0,1.5c0,0.3,0,0.5,0,0.8c0.7,2.6,2.2,4.3,4.5,5.8c15.9,10.5,32.1,20.6,48,31.2
				c20.7,13.7,41.6,27.2,62.2,41c5.3,3.5,10.1,3.5,15.3-0.1c5.7-4,11.5-7.7,17.3-11.5c30.6-20.1,61.4-40,92-60
				c2.7-1.8,4.6-3.9,5.4-7.1c0-1.5,0-3.1,0-4.6C244.1,40.5,243.4,37,240.8,33.9z"/>
			<path class="st0" d="M1.8,72.5L1.8,72.5c-0.5-0.3-1-0.5-1.5-0.8c0,34.6,0,69.3,0,103.9c0.5-0.2,1.1-0.5,1.6-0.7
				c25.7-17,51.5-33.9,77.6-51.1C53.3,106.5,27.5,89.5,1.8,72.5z"/>
		</g>
	</g>
</g>
</svg>
