<?xml version="1.0" encoding="utf-8"?>
<!-- Generator: Adobe Illustrator 22.1.0, SVG Export Plug-In . SVG Version: 6.00 Build 0)  -->
<svg version="1.1" id="Layer_1" xmlns="http://www.w3.org/2000/svg" xmlns:xlink="http://www.w3.org/1999/xlink" x="0px" y="0px"
	 viewBox="0 0 128 128" style="enable-background:new 0 0 128 128;" xml:space="preserve">
<style type="text/css">
	.st0{display:none;}
	.st1{display:inline;}
	.st2{fill:#505050;}
</style>
<g id="Layer_1_1_" class="st0">
	<path id="XMLID_4_" class="st1" d="M117.8,128V84.6c0-8.5-6.9-15.4-15.4-15.4H25.6c-8.5,0-15.4,6.9-15.4,15.4V128H117.8z"/>
	<circle id="XMLID_1_" class="st1" cx="64" cy="32.6" r="32.6"/>
</g>
<g id="Layer_2_1_">
	<path id="XMLID_10_" class="st2" d="M116,23.9H86.9V12c0-6.6-5.4-12-12-12H53.1c-6.6,0-12,5.4-12,12v11.9H12c-6.6,0-12,5.4-12,12
		V116c0,6.6,5.4,12,12,12h104c6.6,0,12-5.4,12-12V35.9C128,29.3,122.6,23.9,116,23.9z M46.4,11.5c0-3.8,3.1-6.8,6.8-6.8h21.6
		c3.8,0,6.8,3.1,6.8,6.8v12.4H46.4V11.5z"/>
</g>
</svg>
