<?xml version="1.0" encoding="utf-8"?>
<!-- Generator: Adobe Illustrator 22.1.0, SVG Export Plug-In . SVG Version: 6.00 Build 0)  -->
<svg version="1.1" id="Layer_1" xmlns="http://www.w3.org/2000/svg" xmlns:xlink="http://www.w3.org/1999/xlink" x="0px" y="0px"
	 viewBox="0 0 245 245" style="enable-background:new 0 0 245 245;" xml:space="preserve">
<style type="text/css">
	.st0{fill:#ECECEC;}
</style>
<path class="st0" d="M231,0H13.5C6,0,0,6,0,13.5V231c0,7.4,6,13.5,13.5,13.5h117.1v-94.7H98.7v-36.9h31.9V85.7
	c0-31.6,19.3-48.8,47.5-48.8c13.5,0,25.1,1,28.5,1.5v33h-19.5c-15.3,0-18.3,7.3-18.3,18V113h36.5l-4.8,36.9h-31.8v94.7H231
	c7.4,0,13.5-6,13.5-13.5V13.5C244.5,6,238.5,0,231,0z"/>
</svg>
