<?xml version="1.0" encoding="utf-8"?>
<!-- Generator: Adobe Illustrator 22.1.0, SVG Export Plug-In . SVG Version: 6.00 Build 0)  -->
<svg version="1.1" id="Layer_1" xmlns="http://www.w3.org/2000/svg" xmlns:xlink="http://www.w3.org/1999/xlink" x="0px" y="0px"
	 viewBox="0 0 245 245" style="enable-background:new 0 0 245 245;" xml:space="preserve">
<style type="text/css">
	.st0{fill:#ECECEC;}
</style>
<g id="c3etB6.tif_1_">
	<g>
		<g>
			<path class="st0" d="M62.7,0.1c7.4,2,12.4,7.1,16.5,13.1c6.8,10,13.6,20.1,18.1,31.5c4.7,12.1,3.1,23-7.7,31.8
				c-4.3,3.5-8.4,7.2-12.7,10.7c-6.9,5.5-8.3,12.8-6.3,21.2c2.3,9.8,7.5,18.1,13.2,26.2c8.1,11.5,17,22.3,27.3,31.9
				c6.3,5.9,13.1,11.4,21.6,14c7.3,2.2,13.3,0.3,18.4-5.1c5.2-5.5,10.4-11,16.6-15.4c7.3-5.2,15.1-4.9,22.9-1.3
				c6.4,3,11.8,7.5,17,12.3c6.5,6,13.3,11.5,18.8,18.5c2.7,3.5,4,7.5,5,11.7c0,0.8,0,1.7,0,2.5c-0.3,6-3.4,10.2-7.9,13.9
				s-8.5,8-13,11.8c-7.5,6.3-16.2,10.3-25.5,13.2c-3.1,1-6.4,0.7-9.5,1.4c-6.5,0-13,0-19.5,0c-23.8-2.2-43-14.4-60.6-29.2
				c-25.8-21.6-46.8-47.4-63.6-76.6c-8.2-14.2-14.3-29.4-17.4-45.7c-0.8-4.3-0.5-8.7-1.2-13.1c0-3.6,0-7.1,0-10.7
				c0.5-6.1,0.8-12.3,2.6-18.3c4-14.4,11.7-26.7,23.1-36.5c2.9-2.5,5.7-4.9,8.5-7.5c3.5-3.3,7.2-6,12.2-6.3
				C60.6,0.1,61.6,0.1,62.7,0.1z"/>
		</g>
	</g>
</g>
</svg>
